<svg xmlns="http://www.w3.org/2000/svg" viewBox="0 0 160 120">
  <!-- 립스틱 -->
  <rect x="28" y="58" width="22" height="52" rx="6" fill="#c49edd" opacity="0.9"/>
  <rect x="24" y="55" width="30" height="12" rx="5" fill="#b07fd4"/>
  <rect x="30" y="32" width="18" height="28" rx="5" fill="#d4b0e8"/>
  <path d="M30,32 Q39,18 48,32" fill="#e8c8f4" opacity="0.85"/>
  <!-- 아이섀도 팔레트 -->
  <rect x="72" y="52" width="72" height="48" rx="10" fill="#d4b0e8" opacity="0.75"/>
  <rect x="78" y="58" width="28" height="16" rx="5" fill="#c49edd"/>
  <rect x="110" y="58" width="28" height="16" rx="5" fill="#b898d4"/>
  <rect x="78" y="78" width="28" height="16" rx="5" fill="#e0c8f0"/>
  <rect x="110" y="78" width="28" height="16" rx="5" fill="#c8a8e4"/>
  <!-- 브러시 -->
  <rect x="58" y="15" width="8" height="55" rx="4" fill="#d4b0e8" opacity="0.8"/>
  <ellipse cx="62" cy="72" rx="7" ry="10" fill="#b898d4" opacity="0.75"/>
  <!-- 반짝임 -->
  <circle cx="18" cy="30" r="4" fill="#9b7ec8" opacity="0.45"/>
  <circle cx="30" cy="18" r="2.5" fill="#9b7ec8" opacity="0.35"/>
  <circle cx="148" cy="28" r="3.5" fill="#9b7ec8" opacity="0.45"/>
  <circle cx="155" cy="42" r="2" fill="#9b7ec8" opacity="0.35"/>
  <circle cx="140" cy="18" r="2" fill="#9b7ec8" opacity="0.3"/>
</svg>
